<svg xmlns="http://www.w3.org/2000/svg" xmlns:xlink="http://www.w3.org/1999/xlink" contentStyleType="text/css" height="640px" preserveAspectRatio="none" style="width:880px;height:640px;background:#07141F;" version="1.1" viewBox="0 0 880 640" width="880px" zoomAndPan="magnify"><title>CI receipt flow. Push is a privilege.</title><defs/><g><rect fill="#07141F" height="640" style="stroke:none;stroke-width:1;" width="880" x="0" y="0"/><text fill="#D4A84B" font-family="sans-serif" font-size="14" font-weight="bold" lengthAdjust="spacing" textLength="275.0781" x="301.4617" y="27.9951">CI receipt flow. Push is a privilege.</text><rect fill="none" height="148.4688" style="stroke:#000000;stroke-width:1.5;" width="513.1079" x="10" y="394.6563"/><line style="stroke:#2DD4BF;stroke-width:0.5;stroke-dasharray:5.0,5.0;" x1="43" x2="43" y1="118.5938" y2="560.125"/><line style="stroke:#2DD4BF;stroke-width:0.5;stroke-dasharray:5.0,5.0;" x1="301.4175" x2="301.4175" y1="118.5938" y2="560.125"/><line style="stroke:#2DD4BF;stroke-width:0.5;stroke-dasharray:5.0,5.0;" x1="444.5171" x2="444.5171" y1="118.5938" y2="560.125"/><line style="stroke:#2DD4BF;stroke-width:0.5;stroke-dasharray:5.0,5.0;" x1="653.1802" x2="653.1802" y1="118.5938" y2="560.125"/><line style="stroke:#2DD4BF;stroke-width:0.5;stroke-dasharray:5.0,5.0;" x1="808.647" x2="808.647" y1="118.5938" y2="560.125"/><text fill="#EEF4F6" font-family="sans-serif" font-size="14" lengthAdjust="spacing" textLength="41.4395" x="20" y="115.292">Agent</text><ellipse cx="43.7197" cy="50.7969" fill="#0D1E2C" rx="8" ry="8" style="stroke:#D4A84B;stroke-width:0.5;"/><path d="M43.7197,58.7969 L43.7197,85.7969 M30.7197,66.7969 L56.7197,66.7969 M43.7197,85.7969 L30.7197,100.7969 M43.7197,85.7969 L56.7197,100.7969 " fill="none" style="stroke:#D4A84B;stroke-width:0.5;"/><text fill="#EEF4F6" font-family="sans-serif" font-size="14" lengthAdjust="spacing" textLength="41.4395" x="20" y="572.1201">Agent</text><ellipse cx="43.7197" cy="583.9219" fill="#0D1E2C" rx="8" ry="8" style="stroke:#D4A84B;stroke-width:0.5;"/><path d="M43.7197,591.9219 L43.7197,618.9219 M30.7197,599.9219 L56.7197,599.9219 M43.7197,618.9219 L30.7197,633.9219 M43.7197,618.9219 L56.7197,633.9219 " fill="none" style="stroke:#D4A84B;stroke-width:0.5;"/><rect fill="#0D1E2C" height="30.2969" rx="2.5" ry="2.5" style="stroke:#2DD4BF;stroke-width:0.5;" width="131.0996" x="236.4175" y="87.2969"/><text fill="#EEF4F6" font-family="sans-serif" font-size="14" lengthAdjust="spacing" textLength="117.0996" x="243.4175" y="107.292">PreToolUse hook</text><rect fill="#0D1E2C" height="30.2969" rx="2.5" ry="2.5" style="stroke:#2DD4BF;stroke-width:0.5;" width="131.0996" x="236.4175" y="559.125"/><text fill="#EEF4F6" font-family="sans-serif" font-size="14" lengthAdjust="spacing" textLength="117.0996" x="243.4175" y="579.1201">PreToolUse hook</text><rect fill="#0D1E2C" height="30.2969" rx="2.5" ry="2.5" style="stroke:#2DD4BF;stroke-width:0.5;" width="135.5908" x="377.5171" y="87.2969"/><text fill="#EEF4F6" font-family="sans-serif" font-size="14" lengthAdjust="spacing" textLength="121.5908" x="384.5171" y="107.292">scripts/receipt.py</text><rect fill="#0D1E2C" height="30.2969" rx="2.5" ry="2.5" style="stroke:#2DD4BF;stroke-width:0.5;" width="135.5908" x="377.5171" y="559.125"/><text fill="#EEF4F6" font-family="sans-serif" font-size="14" lengthAdjust="spacing" textLength="121.5908" x="384.5171" y="579.1201">scripts/receipt.py</text><rect fill="#0D1E2C" height="30.2969" rx="2.5" ry="2.5" style="stroke:#2DD4BF;stroke-width:0.5;" width="160.4668" x="573.1802" y="87.2969"/><text fill="#EEF4F6" font-family="sans-serif" font-size="14" lengthAdjust="spacing" textLength="146.4668" x="580.1802" y="107.292">.harness/receipt.json</text><rect fill="#0D1E2C" height="30.2969" rx="2.5" ry="2.5" style="stroke:#2DD4BF;stroke-width:0.5;" width="160.4668" x="573.1802" y="559.125"/><text fill="#EEF4F6" font-family="sans-serif" font-size="14" lengthAdjust="spacing" textLength="146.4668" x="580.1802" y="579.1201">.harness/receipt.json</text><rect fill="#0D1E2C" height="30.2969" rx="2.5" ry="2.5" style="stroke:#2DD4BF;stroke-width:0.5;" width="130.3545" x="743.647" y="87.2969"/><text fill="#EEF4F6" font-family="sans-serif" font-size="14" lengthAdjust="spacing" textLength="116.3545" x="750.647" y="107.292">reports/junit.xml</text><rect fill="#0D1E2C" height="30.2969" rx="2.5" ry="2.5" style="stroke:#2DD4BF;stroke-width:0.5;" width="130.3545" x="743.647" y="559.125"/><text fill="#EEF4F6" font-family="sans-serif" font-size="14" lengthAdjust="spacing" textLength="116.3545" x="750.647" y="579.1201">reports/junit.xml</text><line style="stroke:#2DD4BF;stroke-width:1;" x1="43.7197" x2="85.7197" y1="149.7266" y2="149.7266"/><line style="stroke:#2DD4BF;stroke-width:1;" x1="85.7197" x2="85.7197" y1="149.7266" y2="162.7266"/><line style="stroke:#2DD4BF;stroke-width:1;" x1="44.7197" x2="85.7197" y1="162.7266" y2="162.7266"/><polygon fill="#2DD4BF" points="54.7197,158.7266,44.7197,162.7266,54.7197,166.7266,50.7197,162.7266" style="stroke:#2DD4BF;stroke-width:1;"/><text fill="#EEF4F6" font-family="sans-serif" font-size="13" lengthAdjust="spacing" textLength="56.4624" x="50.7197" y="144.6606">task test</text><polygon fill="#2DD4BF" points="796.8242,187.8594,806.8242,191.8594,796.8242,195.8594,800.8242,191.8594" style="stroke:#2DD4BF;stroke-width:1;"/><line style="stroke:#2DD4BF;stroke-width:1;" x1="43.7197" x2="802.8242" y1="191.8594" y2="191.8594"/><text fill="#EEF4F6" font-family="sans-serif" font-size="13" lengthAdjust="spacing" textLength="76.8066" x="50.7197" y="186.7935">write report</text><polygon fill="#2DD4BF" points="433.3125,216.9922,443.3125,220.9922,433.3125,224.9922,437.3125,220.9922" style="stroke:#2DD4BF;stroke-width:1;"/><line style="stroke:#2DD4BF;stroke-width:1;" x1="43.7197" x2="439.3125" y1="220.9922" y2="220.9922"/><text fill="#EEF4F6" font-family="sans-serif" font-size="13" lengthAdjust="spacing" textLength="142.8921" x="50.7197" y="215.9263">write(repo, exit_code)</text><polygon fill="#2DD4BF" points="796.8242,246.125,806.8242,250.125,796.8242,254.125,800.8242,250.125" style="stroke:#2DD4BF;stroke-width:1;"/><line style="stroke:#2DD4BF;stroke-width:1;" x1="445.3125" x2="802.8242" y1="250.125" y2="250.125"/><text fill="#EEF4F6" font-family="sans-serif" font-size="13" lengthAdjust="spacing" textLength="81.8149" x="452.3125" y="245.0591">read failures</text><line style="stroke:#2DD4BF;stroke-width:1;" x1="445.3125" x2="487.3125" y1="279.2578" y2="279.2578"/><line style="stroke:#2DD4BF;stroke-width:1;" x1="487.3125" x2="487.3125" y1="279.2578" y2="292.2578"/><line style="stroke:#2DD4BF;stroke-width:1;" x1="446.3125" x2="487.3125" y1="292.2578" y2="292.2578"/><polygon fill="#2DD4BF" points="456.3125,288.2578,446.3125,292.2578,456.3125,296.2578,452.3125,292.2578" style="stroke:#2DD4BF;stroke-width:1;"/><text fill="#EEF4F6" font-family="sans-serif" font-size="13" lengthAdjust="spacing" textLength="165.3247" x="452.3125" y="274.1919">tree_hash, newest mtime</text><polygon fill="#2DD4BF" points="641.4136,317.3906,651.4136,321.3906,641.4136,325.3906,645.4136,321.3906" style="stroke:#2DD4BF;stroke-width:1;"/><line style="stroke:#2DD4BF;stroke-width:1;" x1="445.3125" x2="647.4136" y1="321.3906" y2="321.3906"/><text fill="#EEF4F6" font-family="sans-serif" font-size="13" lengthAdjust="spacing" textLength="184.1011" x="452.3125" y="316.3247">green, tree_hash, written_at</text><polygon fill="#2DD4BF" points="289.9673,346.5234,299.9673,350.5234,289.9673,354.5234,293.9673,350.5234" style="stroke:#2DD4BF;stroke-width:1;"/><line style="stroke:#2DD4BF;stroke-width:1;" x1="43.7197" x2="295.9673" y1="350.5234" y2="350.5234"/><text fill="#EEF4F6" font-family="sans-serif" font-size="13" lengthAdjust="spacing" textLength="52.5967" x="50.7197" y="345.4575">git push</text><polygon fill="#2DD4BF" points="433.3125,375.6563,443.3125,379.6563,433.3125,383.6563,437.3125,379.6563" style="stroke:#2DD4BF;stroke-width:1;"/><line style="stroke:#2DD4BF;stroke-width:1;" x1="301.9673" x2="439.3125" y1="379.6563" y2="379.6563"/><text fill="#EEF4F6" font-family="sans-serif" font-size="13" lengthAdjust="spacing" textLength="77.7524" x="308.9673" y="374.5903">check(repo)</text><path d="M10,394.6563 L74.4429,394.6563 L74.4429,401.7891 L64.4429,411.7891 L10,411.7891 L10,394.6563 " fill="#EEEEEE" style="stroke:#000000;stroke-width:1.5;"/><rect fill="none" height="148.4688" style="stroke:#000000;stroke-width:1.5;" width="513.1079" x="10" y="394.6563"/><text fill="#EEF4F6" font-family="sans-serif" font-size="13" font-weight="bold" lengthAdjust="spacing" textLength="19.4429" x="25" y="407.7231">alt</text><text fill="#EEF4F6" font-family="sans-serif" font-size="11" font-weight="bold" lengthAdjust="spacing" textLength="321.8359" x="89.4429" y="406.8667">[no receipt, not green, stale hash, or newer source]</text><polygon fill="#2DD4BF" points="312.9673,428.9219,302.9673,432.9219,312.9673,436.9219,308.9673,432.9219" style="stroke:#2DD4BF;stroke-width:1;"/><line style="stroke:#2DD4BF;stroke-width:1;stroke-dasharray:2.0,2.0;" x1="306.9673" x2="444.3125" y1="432.9219" y2="432.9219"/><text fill="#EEF4F6" font-family="sans-serif" font-size="13" lengthAdjust="spacing" textLength="40.9297" x="318.9673" y="427.856">refuse</text><polygon fill="#2DD4BF" points="54.7197,458.0547,44.7197,462.0547,54.7197,466.0547,50.7197,462.0547" style="stroke:#2DD4BF;stroke-width:1;"/><line style="stroke:#2DD4BF;stroke-width:1;stroke-dasharray:2.0,2.0;" x1="48.7197" x2="300.9673" y1="462.0547" y2="462.0547"/><text fill="#EEF4F6" font-family="sans-serif" font-size="13" lengthAdjust="spacing" textLength="234.2476" x="60.7197" y="456.9888">BLOCKED by pre-tool hook: git push</text><line style="stroke:#000000;stroke-width:1;stroke-dasharray:2.0,2.0;" x1="10" x2="523.1079" y1="471.0547" y2="471.0547"/><text fill="#EEF4F6" font-family="sans-serif" font-size="11" font-weight="bold" lengthAdjust="spacing" textLength="245.894" x="15" y="481.2651">[green and this tree and after last edit]</text><polygon fill="#2DD4BF" points="312.9673,501.9922,302.9673,505.9922,312.9673,509.9922,308.9673,505.9922" style="stroke:#2DD4BF;stroke-width:1;"/><line style="stroke:#2DD4BF;stroke-width:1;stroke-dasharray:2.0,2.0;" x1="306.9673" x2="444.3125" y1="505.9922" y2="505.9922"/><text fill="#EEF4F6" font-family="sans-serif" font-size="13" lengthAdjust="spacing" textLength="33.7759" x="318.9673" y="500.9263">allow</text><polygon fill="#2DD4BF" points="54.7197,531.125,44.7197,535.125,54.7197,539.125,50.7197,535.125" style="stroke:#2DD4BF;stroke-width:1;"/><line style="stroke:#2DD4BF;stroke-width:1;stroke-dasharray:2.0,2.0;" x1="48.7197" x2="300.9673" y1="535.125" y2="535.125"/><text fill="#EEF4F6" font-family="sans-serif" font-size="13" lengthAdjust="spacing" textLength="95.3545" x="60.7197" y="530.0591">push proceeds</text><!--SRC=[ZP91ZzD038Nl-HLckR1Ijz1L1OW3KhTGbMKbgWhEbJlZDBETp0IFGxT2_7USj54JBGUEiJ-_znpFYufnLo9uFCPQ89Ka631BUnSgP2nXYsQ_urW7Euy-ChnyysuodUGzmbAEjPT53796YF9f_hQ7p9ZZuToyjNQwxS-B4q-zQJl5zzDj3qZqiwPW27vd00ykfmSNw2wo9Hvg0ioCH1wqpcfTwzasTaAtHjihP776LHZa_w1_-F_9sbrW_WMO3BbA8FVnC8PLdGfm2H0gTh-SfnsDCsm2mMn7GRBg8WnNAwRlCVeVYQ28SNy5c60vH99XLK-lppRZwjXIwo4rBf03fGlsc69emSKGPAeYgznZ7PoCdqhVGlTP6mvkFfvImWSGJ7iGId9ftMlvm4u8JYgNphhhl6ew8w0d9niJBLrdwswI2Itaw7pDb4xbPaoOQ5DWAaOGwA1-K8ehwGGi5DWf44Pzhd4I2Xli9LWsf1EezFzdoqxS56JsRQRh3Br0YDsvr2rAfvq4zPOdSJrKauCXnPeDwLFG96S3fhnEJMdPbhfVTVVmRVxryoVO7lNeT2DwqVQSlKJazSIj6s2m88K-aMQZzWjpKJ-FkZjP9mDBzFgidZasckeL3P5D6GNx5m00]--></g></svg>