<svg xmlns="http://www.w3.org/2000/svg" xmlns:xlink="http://www.w3.org/1999/xlink" contentStyleType="text/css" height="343px" preserveAspectRatio="none" style="width:814px;height:343px;background:#07141F;" version="1.1" viewBox="0 0 814 343" width="814px" zoomAndPan="magnify"><title>Least-privilege tool wall</title><defs/><g><rect fill="#07141F" height="343" style="stroke:none;stroke-width:1;" width="814" x="0" y="0"/><text fill="#D4A84B" font-family="sans-serif" font-size="14" font-weight="bold" lengthAdjust="spacing" textLength="190.6133" x="307.6934" y="22.9951">Least-privilege tool wall</text><!--cluster Shipped--><g id="cluster_Shipped"><path d="M282.5,49.7969 L347.9082,49.7969 A3.75,3.75 0 0 1 350.4082,52.2969 L357.4082,72.0938 L439.5,72.0938 A2.5,2.5 0 0 1 442,74.5938 L442,260.7969 A2.5,2.5 0 0 1 439.5,263.2969 L282.5,263.2969 A2.5,2.5 0 0 1 280,260.7969 L280,52.2969 A2.5,2.5 0 0 1 282.5,49.7969 " fill="#0D1E2C" style="stroke:#2DD4BF;stroke-width:1.5;"/><line style="stroke:#2DD4BF;stroke-width:1.5;" x1="280" x2="357.4082" y1="72.0938" y2="72.0938"/><text fill="#EEF4F6" font-family="sans-serif" font-size="14" font-weight="bold" lengthAdjust="spacing" textLength="64.4082" x="284" y="64.792">Shipped</text></g><!--cluster Capped. No handle--><g id="cluster_Capped. No handle"><path d="M491.5,175.2969 L641.8789,175.2969 A3.75,3.75 0 0 1 644.3789,177.7969 L651.3789,197.5938 L804.5,197.5938 A2.5,2.5 0 0 1 807,200.0938 L807,333.7969 A2.5,2.5 0 0 1 804.5,336.2969 L491.5,336.2969 A2.5,2.5 0 0 1 489,333.7969 L489,177.7969 A2.5,2.5 0 0 1 491.5,175.2969 " fill="#0D1E2C" style="stroke:#2DD4BF;stroke-width:1.5;"/><line style="stroke:#2DD4BF;stroke-width:1.5;" x1="489" x2="651.3789" y1="197.5938" y2="197.5938"/><text fill="#EEF4F6" font-family="sans-serif" font-size="14" font-weight="bold" lengthAdjust="spacing" textLength="149.3789" x="493" y="190.292">Capped. No handle</text></g><!--cluster Measured failure--><g id="cluster_Measured failure"><path d="M452.5,41.2969 L587.4707,41.2969 A3.75,3.75 0 0 1 589.9707,43.7969 L596.9707,63.5938 L673.5,63.5938 A2.5,2.5 0 0 1 676,66.0938 L676,126.7969 A2.5,2.5 0 0 1 673.5,129.2969 L452.5,129.2969 A2.5,2.5 0 0 1 450,126.7969 L450,43.7969 A2.5,2.5 0 0 1 452.5,41.2969 " fill="#0D1E2C" style="stroke:#2DD4BF;stroke-width:1.5;"/><line style="stroke:#2DD4BF;stroke-width:1.5;" x1="450" x2="596.9707" y1="63.5938" y2="63.5938"/><text fill="#EEF4F6" font-family="sans-serif" font-size="14" font-weight="bold" lengthAdjust="spacing" textLength="133.9707" x="454" y="56.292">Measured failure</text></g><g id="elem_GMN15"><path d="M6,59.2969 L6,129.8281 A0,0 0 0 0 6,129.8281 L271.8291,129.8281 A0,0 0 0 0 271.8291,129.8281 L271.8291,98.7969 L289.8337,94.7969 L271.8291,90.7969 L271.8291,69.2969 L261.8291,59.2969 L6,59.2969 A0,0 0 0 0 6,59.2969 " fill="#122536" style="stroke:#D4A84B;stroke-width:0.5;"/><path d="M261.8291,59.2969 L261.8291,69.2969 L271.8291,69.2969 L261.8291,59.2969 " fill="#122536" style="stroke:#D4A84B;stroke-width:0.5;"/><text fill="#EEF4F6" font-family="sans-serif" font-size="13" lengthAdjust="spacing" textLength="244.8291" x="12" y="76.3638">add_review_comment(issue_id, body)</text><text fill="#EEF4F6" font-family="sans-serif" font-size="13" lengthAdjust="spacing" textLength="55.3643" x="12" y="91.4966">is a tool.</text><text fill="#EEF4F6" font-family="sans-serif" font-size="13" lengthAdjust="spacing" textLength="223.063" x="12" y="106.6294">An HTTP client holding credentials</text><text fill="#EEF4F6" font-family="sans-serif" font-size="13" lengthAdjust="spacing" textLength="77.8159" x="12" y="121.7622">is a liability.</text></g><!--entity Search--><g id="elem_Search"><rect fill="#0D1E2C" height="36.2969" rx="2.5" ry="2.5" style="stroke:#2DD4BF;stroke-width:0.5;" width="138.2207" x="290" y="76.7969"/><text fill="#EEF4F6" font-family="sans-serif" font-size="14" lengthAdjust="spacing" textLength="118.2207" x="300" y="99.792">search(question)</text></g><!--entity Write--><g id="elem_Write"><rect fill="#0D1E2C" height="52.5938" rx="2.5" ry="2.5" style="stroke:#2DD4BF;stroke-width:0.5;" width="145.624" x="288" y="202.2969"/><text fill="#EEF4F6" font-family="sans-serif" font-size="14" lengthAdjust="spacing" textLength="96.4619" x="298" y="225.292">write into this</text><text fill="#EEF4F6" font-family="sans-serif" font-size="14" lengthAdjust="spacing" textLength="125.624" x="298" y="241.5889">loop output folder</text></g><!--entity Merge--><g id="elem_Merge"><rect fill="#0D1E2C" height="36.2969" rx="2.5" ry="2.5" style="stroke:#2DD4BF;stroke-width:0.5;" width="65.5068" x="647" y="210.7969"/><text fill="#EEF4F6" font-family="sans-serif" font-size="14" lengthAdjust="spacing" textLength="45.5068" x="657" y="233.792">merge</text></g><!--entity Deploy--><g id="elem_Deploy"><rect fill="#0D1E2C" height="36.2969" rx="2.5" ry="2.5" style="stroke:#2DD4BF;stroke-width:0.5;" width="67.127" x="731.5" y="210.7969"/><text fill="#EEF4F6" font-family="sans-serif" font-size="14" lengthAdjust="spacing" textLength="47.127" x="741.5" y="233.792">deploy</text></g><!--entity Ticket--><g id="elem_Ticket"><rect fill="#0D1E2C" height="36.2969" rx="2.5" ry="2.5" style="stroke:#2DD4BF;stroke-width:0.5;" width="99.2012" x="586.5" y="292.2969"/><text fill="#EEF4F6" font-family="sans-serif" font-size="14" lengthAdjust="spacing" textLength="79.2012" x="596.5" y="315.292">ticket state</text></g><!--entity Prod--><g id="elem_Prod"><rect fill="#0D1E2C" height="36.2969" rx="2.5" ry="2.5" style="stroke:#2DD4BF;stroke-width:0.5;" width="95.4824" x="703.5" y="292.2969"/><text fill="#EEF4F6" font-family="sans-serif" font-size="14" lengthAdjust="spacing" textLength="75.4824" x="713.5" y="315.292">production</text></g><!--entity Http--><g id="elem_Http"><rect fill="#0D1E2C" height="52.5938" rx="2.5" ry="2.5" style="stroke:#2DD4BF;stroke-width:0.5;" width="131.7334" x="497" y="202.2969"/><text fill="#EEF4F6" font-family="sans-serif" font-size="14" lengthAdjust="spacing" textLength="78.9756" x="507" y="225.292">HTTP client</text><text fill="#EEF4F6" font-family="sans-serif" font-size="14" lengthAdjust="spacing" textLength="111.7334" x="507" y="241.5889">with credentials</text></g><!--entity Bench--><g id="elem_Bench"><rect fill="#0D1E2C" height="52.5938" rx="2.5" ry="2.5" style="stroke:#2DD4BF;stroke-width:0.5;" width="208.5215" x="458.5" y="68.2969"/><text fill="#EEF4F6" font-family="sans-serif" font-size="14" lengthAdjust="spacing" textLength="139.6855" x="468.5" y="91.292">ToolPrivBench 2026</text><text fill="#EEF4F6" font-family="sans-serif" font-size="14" lengthAdjust="spacing" textLength="188.5215" x="468.5" y="107.5889">agents pick the bigger tool</text></g><polygon fill="#2DD4BF" points="360.6077,201.9049,364.4709,192.8453,360.5319,196.9055,356.4718,192.9665,360.6077,201.9049" style="stroke:#2DD4BF;stroke-width:1;"/><path d="M359.2615,113.0536 C359.6045,135.6957 360.1187,169.6312 360.5168,195.9056 " fill="none" style="stroke:#2DD4BF;stroke-width:1;"/><polygon fill="#2DD4BF" points="563,202.0976,567,193.0976,563,197.0976,559,193.0976,563,202.0976" style="stroke:#2DD4BF;stroke-width:1;"/><path d="M563,121.5612 C563,144.8199 563,172.859 563,196.0976 " fill="none" style="stroke:#2DD4BF;stroke-width:1;stroke-dasharray:7.0,7.0;"/><text fill="#EEF4F6" font-family="sans-serif" font-size="13" lengthAdjust="spacing" textLength="223.1138" x="565" y="162.3638">agents reach past the screwdriver</text><!--SRC=[ZLF1Rjim3BtdAxZiqW9Bq7XPDknGeEamzB0E0HfWbm01Oz4s4LdI9Bb6CEpVHoiPuinRiPiaFZu-FbAldCUoHj1ui4s4K5D4WwEmP-FGOmqxpFUbjurHzrPR3wzlti_ciwA7K5HWe-DdQ-89GbJCYqKFSkUzRK_1JAdvhf-_j5wH_rSqSjJKurPp_33VzG2XGcLRDYKKg0Fr8awaOqdBGGTgHbd-5-2BGZpbOasf_uFl37sHqTWu99jbsRktYpzHVPw10nrYw7uo3huGXZXndfzPKqaGhTNGejQZKzCmVghOEL9Z-362itGO1qAVLrVV6mgHhRaU0mPuIe-NmDPp960JBSIAmyPeQnt8EZdPgC9gaPvoltMuqSzpvNli2a_XguKAZT8qq52JBoabFtQdow0Yf-qXHJ-busKuShudMUc8yKYnJW-N8EUjQlAklmHPoVKIyB1Uho3NJ2PkJCknWjoJaXlBjgMSXnXTlwj7iRmHZEmZQpaCcbhB35OoaIMPl8Bi9bjiZ6IQ6C29H36HOCTbIJwDAnL9MAboz1ycazkJdKUIwVGswO2FS6BoXFBkPFg9BuZgLabHygDkNy1pMKMmnNcYgDJMqpDJkyrjNGlB5OVGq9RL6zXPTRWM40V0f6egbpi3FNkWab5t_x1dqEyCpRXZpV4m7P5HQMD_0G00]--></g></svg>