<svg id="my-svg" width="100%" xmlns="http://www.w3.org/2000/svg" xmlns:xlink="http://www.w3.org/1999/xlink" class="classDiagram" style="max-width: 495.854px; background-color: transparent;" viewBox="0 0 495.853515625 620" role="graphics-document document" aria-roledescription="class"><style>#my-svg{font-family:"trebuchet ms",verdana,arial,sans-serif;font-size:16px;fill:#333;}@keyframes edge-animation-frame{from{stroke-dashoffset:0;}}@keyframes dash{to{stroke-dashoffset:0;}}#my-svg .edge-animation-slow{stroke-dasharray:9,5!important;stroke-dashoffset:900;animation:dash 50s linear infinite;stroke-linecap:round;}#my-svg .edge-animation-fast{stroke-dasharray:9,5!important;stroke-dashoffset:900;animation:dash 20s linear infinite;stroke-linecap:round;}#my-svg .error-icon{fill:#552222;}#my-svg .error-text{fill:#552222;stroke:#552222;}#my-svg .edge-thickness-normal{stroke-width:1px;}#my-svg .edge-thickness-thick{stroke-width:3.5px;}#my-svg .edge-pattern-solid{stroke-dasharray:0;}#my-svg .edge-thickness-invisible{stroke-width:0;fill:none;}#my-svg .edge-pattern-dashed{stroke-dasharray:3;}#my-svg .edge-pattern-dotted{stroke-dasharray:2;}#my-svg .marker{fill:#333333;stroke:#333333;}#my-svg .marker.cross{stroke:#333333;}#my-svg svg{font-family:"trebuchet ms",verdana,arial,sans-serif;font-size:16px;}#my-svg p{margin:0;}#my-svg g.classGroup text{fill:#9370DB;stroke:none;font-family:"trebuchet ms",verdana,arial,sans-serif;font-size:10px;}#my-svg g.classGroup text .title{font-weight:bolder;}#my-svg .nodeLabel,#my-svg .edgeLabel{color:#131300;}#my-svg .edgeLabel .label rect{fill:#ECECFF;}#my-svg .label text{fill:#131300;}#my-svg .labelBkg{background:#ECECFF;}#my-svg .edgeLabel .label span{background:#ECECFF;}#my-svg .classTitle{font-weight:bolder;}#my-svg .node rect,#my-svg .node circle,#my-svg .node ellipse,#my-svg .node polygon,#my-svg .node path{fill:#ECECFF;stroke:#9370DB;stroke-width:1px;}#my-svg .divider{stroke:#9370DB;stroke-width:1;}#my-svg g.clickable{cursor:pointer;}#my-svg g.classGroup rect{fill:#ECECFF;stroke:#9370DB;}#my-svg g.classGroup line{stroke:#9370DB;stroke-width:1;}#my-svg .classLabel .box{stroke:none;stroke-width:0;fill:#ECECFF;opacity:0.5;}#my-svg .classLabel .label{fill:#9370DB;font-size:10px;}#my-svg .relation{stroke:#333333;stroke-width:1;fill:none;}#my-svg .dashed-line{stroke-dasharray:3;}#my-svg .dotted-line{stroke-dasharray:1 2;}#my-svg #compositionStart,#my-svg .composition{fill:#333333!important;stroke:#333333!important;stroke-width:1;}#my-svg #compositionEnd,#my-svg .composition{fill:#333333!important;stroke:#333333!important;stroke-width:1;}#my-svg #dependencyStart,#my-svg .dependency{fill:#333333!important;stroke:#333333!important;stroke-width:1;}#my-svg #dependencyStart,#my-svg .dependency{fill:#333333!important;stroke:#333333!important;stroke-width:1;}#my-svg #extensionStart,#my-svg .extension{fill:transparent!important;stroke:#333333!important;stroke-width:1;}#my-svg #extensionEnd,#my-svg .extension{fill:transparent!important;stroke:#333333!important;stroke-width:1;}#my-svg #aggregationStart,#my-svg .aggregation{fill:transparent!important;stroke:#333333!important;stroke-width:1;}#my-svg #aggregationEnd,#my-svg .aggregation{fill:transparent!important;stroke:#333333!important;stroke-width:1;}#my-svg #lollipopStart,#my-svg .lollipop{fill:#ECECFF!important;stroke:#333333!important;stroke-width:1;}#my-svg #lollipopEnd,#my-svg .lollipop{fill:#ECECFF!important;stroke:#333333!important;stroke-width:1;}#my-svg .edgeTerminals{font-size:11px;line-height:initial;}#my-svg .classTitleText{text-anchor:middle;font-size:18px;fill:#333;}#my-svg .label-icon{display:inline-block;height:1em;overflow:visible;vertical-align:-0.125em;}#my-svg .node .label-icon path{fill:currentColor;stroke:revert;stroke-width:revert;}#my-svg :root{--mermaid-font-family:"trebuchet ms",verdana,arial,sans-serif;}</style><g><defs><marker id="my-svg_class-aggregationStart" class="marker aggregation class" refX="18" refY="7" markerWidth="190" markerHeight="240" orient="auto"><path d="M 18,7 L9,13 L1,7 L9,1 Z"/></marker></defs><defs><marker id="my-svg_class-aggregationEnd" class="marker aggregation class" refX="1" refY="7" markerWidth="20" markerHeight="28" orient="auto"><path d="M 18,7 L9,13 L1,7 L9,1 Z"/></marker></defs><defs><marker id="my-svg_class-extensionStart" class="marker extension class" refX="18" refY="7" markerWidth="190" markerHeight="240" orient="auto"><path d="M 1,7 L18,13 V 1 Z"/></marker></defs><defs><marker id="my-svg_class-extensionEnd" class="marker extension class" refX="1" refY="7" markerWidth="20" markerHeight="28" orient="auto"><path d="M 1,1 V 13 L18,7 Z"/></marker></defs><defs><marker id="my-svg_class-compositionStart" class="marker composition class" refX="18" refY="7" markerWidth="190" markerHeight="240" orient="auto"><path d="M 18,7 L9,13 L1,7 L9,1 Z"/></marker></defs><defs><marker id="my-svg_class-compositionEnd" class="marker composition class" refX="1" refY="7" markerWidth="20" markerHeight="28" orient="auto"><path d="M 18,7 L9,13 L1,7 L9,1 Z"/></marker></defs><defs><marker id="my-svg_class-dependencyStart" class="marker dependency class" refX="6" refY="7" markerWidth="190" markerHeight="240" orient="auto"><path d="M 5,7 L9,13 L1,7 L9,1 Z"/></marker></defs><defs><marker id="my-svg_class-dependencyEnd" class="marker dependency class" refX="13" refY="7" markerWidth="20" markerHeight="28" orient="auto"><path d="M 18,7 L9,13 L14,7 L9,1 Z"/></marker></defs><defs><marker id="my-svg_class-lollipopStart" class="marker lollipop class" refX="13" refY="7" markerWidth="190" markerHeight="240" orient="auto"><circle stroke="black" fill="transparent" cx="7" cy="7" r="6"/></marker></defs><defs><marker id="my-svg_class-lollipopEnd" class="marker lollipop class" refX="1" refY="7" markerWidth="190" markerHeight="240" orient="auto"><circle stroke="black" fill="transparent" cx="7" cy="7" r="6"/></marker></defs><g class="root"><g class="clusters"/><g class="edgePaths"><path d="M106.883,176L106.883,180.167C106.883,184.333,106.883,192.667,106.883,200C106.883,207.333,106.883,213.667,106.883,216.833L106.883,220" id="id_SourceDocument_Claim_1" class="edge-thickness-normal edge-pattern-solid relation" style=";;;" data-edge="true" data-et="edge" data-id="id_SourceDocument_Claim_1" data-points="W3sieCI6MTA2Ljg4MjgxMjUsInkiOjE3Nn0seyJ4IjoxMDYuODgyODEyNSwieSI6MjAxfSx7IngiOjEwNi44ODI4MTI1LCJ5IjoyMjZ9XQ==" marker-end="url(#my-svg_class-dependencyEnd)"/><path d="M106.883,418L106.883,422.167C106.883,426.333,106.883,434.667,107.21,442.005C107.537,449.344,108.191,455.688,108.518,458.86L108.845,462.032" id="id_Claim_Finding_2" class="edge-thickness-normal edge-pattern-solid relation" style=";;;" data-edge="true" data-et="edge" data-id="id_Claim_Finding_2" data-points="W3sieCI6MTA2Ljg4MjgxMjUsInkiOjQxOH0seyJ4IjoxMDYuODgyODEyNSwieSI6NDQzfSx7IngiOjEwOS40NjAxMzIwODc2Mjg4NiwieSI6NDY4fV0=" marker-end="url(#my-svg_class-dependencyEnd)"/><path d="M361.284,394L361.959,402.167C362.634,410.333,363.984,426.667,364.659,438C365.334,449.333,365.334,455.667,365.334,458.833L365.334,462" id="id_PaperRun_Checkpoint_3" class="edge-thickness-normal edge-pattern-solid relation" style=";;;" data-edge="true" data-et="edge" data-id="id_PaperRun_Checkpoint_3" data-points="W3sieCI6MzYxLjI4NDM5NzU5ODE0MDUsInkiOjM5NH0seyJ4IjozNjUuMzMzOTg0Mzc1LCJ5Ijo0NDN9LHsieCI6MzY1LjMzMzk4NDM3NSwieSI6NDY4fV0=" marker-end="url(#my-svg_class-dependencyEnd)"/><path d="M281.627,394L273.266,402.167C264.906,410.333,248.185,426.667,234.028,439.741C219.87,452.815,208.276,462.631,202.478,467.539L196.681,472.446" id="id_PaperRun_Finding_4" class="edge-thickness-normal edge-pattern-solid relation" style=";;;" data-edge="true" data-et="edge" data-id="id_PaperRun_Finding_4" data-points="W3sieCI6MjgxLjYyNjcyNzE0MzU5NTEsInkiOjM5NH0seyJ4IjoyMzEuNDY0ODQzNzUsInkiOjQ0M30seyJ4IjoxOTIuMTAxNTYyNSwieSI6NDc2LjMyMzE4NTQ5MDc0NDJ9XQ==" marker-end="url(#my-svg_class-dependencyEnd)"/></g><g class="edgeLabels"><g class="edgeLabel"><g class="label" data-id="id_SourceDocument_Claim_1" transform="translate(0, 0)"><foreignObject width="0" height="0"><div xmlns="http://www.w3.org/1999/xhtml" class="labelBkg" style="display: table-cell; white-space: nowrap; line-height: 1.5; max-width: 200px; text-align: center;"><span class="edgeLabel"></span></div></foreignObject></g></g><g class="edgeLabel"><g class="label" data-id="id_Claim_Finding_2" transform="translate(0, 0)"><foreignObject width="0" height="0"><div xmlns="http://www.w3.org/1999/xhtml" class="labelBkg" style="display: table-cell; white-space: nowrap; line-height: 1.5; max-width: 200px; text-align: center;"><span class="edgeLabel"></span></div></foreignObject></g></g><g class="edgeLabel"><g class="label" data-id="id_PaperRun_Checkpoint_3" transform="translate(0, 0)"><foreignObject width="0" height="0"><div xmlns="http://www.w3.org/1999/xhtml" class="labelBkg" style="display: table-cell; white-space: nowrap; line-height: 1.5; max-width: 200px; text-align: center;"><span class="edgeLabel"></span></div></foreignObject></g></g><g class="edgeLabel"><g class="label" data-id="id_PaperRun_Finding_4" transform="translate(0, 0)"><foreignObject width="0" height="0"><div xmlns="http://www.w3.org/1999/xhtml" class="labelBkg" style="display: table-cell; white-space: nowrap; line-height: 1.5; max-width: 200px; text-align: center;"><span class="edgeLabel"></span></div></foreignObject></g></g></g><g class="nodes"><g class="node default" id="classId-SourceDocument-0" transform="translate(106.8828125, 92)"><g class="basic label-container"><path d="M-83.375 -84 L83.375 -84 L83.375 84 L-83.375 84" stroke="none" stroke-width="0" fill="#ECECFF" style=""/><path d="M-83.375 -84 C-40.71253414977852 -84, 1.94993170044296 -84, 83.375 -84 M-83.375 -84 C-39.939495548092786 -84, 3.4960089038144275 -84, 83.375 -84 M83.375 -84 C83.375 -44.599336643292276, 83.375 -5.198673286584551, 83.375 84 M83.375 -84 C83.375 -23.250782773545488, 83.375 37.498434452909024, 83.375 84 M83.375 84 C38.645416181602585 84, -6.084167636794831 84, -83.375 84 M83.375 84 C46.37873198870122 84, 9.382463977402438 84, -83.375 84 M-83.375 84 C-83.375 29.360393801916416, -83.375 -25.279212396167168, -83.375 -84 M-83.375 84 C-83.375 25.736943970241576, -83.375 -32.52611205951685, -83.375 -84" stroke="#9370DB" stroke-width="1.3" fill="none" stroke-dasharray="0 0" style=""/></g><g class="annotation-group text" transform="translate(0, -60)"/><g class="label-group text" transform="translate(-63.3125, -60)"><g class="label" style="font-weight: bolder" transform="translate(0,-12)"><foreignObject width="126.625" height="24"><div xmlns="http://www.w3.org/1999/xhtml" style="display: table-cell; white-space: nowrap; line-height: 1.5; max-width: 161px; text-align: center;"><span class="nodeLabel markdown-node-label" style=""><p>SourceDocument</p></span></div></foreignObject></g></g><g class="members-group text" transform="translate(-71.375, -12)"><g class="label" style="" transform="translate(0,-12)"><foreignObject width="57.8125" height="24"><div xmlns="http://www.w3.org/1999/xhtml" style="display: table-cell; white-space: nowrap; line-height: 1.5; max-width: 106px; text-align: center;"><span class="nodeLabel markdown-node-label" style=""><p>+url: str</p></span></div></foreignObject></g><g class="label" style="" transform="translate(0,12)"><foreignObject width="79.4375" height="24"><div xmlns="http://www.w3.org/1999/xhtml" style="display: table-cell; white-space: nowrap; line-height: 1.5; max-width: 124px; text-align: center;"><span class="nodeLabel markdown-node-label" style=""><p>+quote: str</p></span></div></foreignObject></g><g class="label" style="" transform="translate(0,36)"><foreignObject width="68.28125" height="24"><div xmlns="http://www.w3.org/1999/xhtml" style="display: table-cell; white-space: nowrap; line-height: 1.5; max-width: 115px; text-align: center;"><span class="nodeLabel markdown-node-label" style=""><p>+host: str</p></span></div></foreignObject></g></g><g class="methods-group text" transform="translate(-71.375, 84)"/><g class="divider" style=""><path d="M-83.375 -36 C-41.71693848525555 -36, -0.05887697051109342 -36, 83.375 -36 M-83.375 -36 C-33.41783012123768 -36, 16.539339757524644 -36, 83.375 -36" stroke="#9370DB" stroke-width="1.3" fill="none" stroke-dasharray="0 0" style=""/></g><g class="divider" style=""><path d="M-83.375 60 C-35.16632039242456 60, 13.042359215150881 60, 83.375 60 M-83.375 60 C-34.83003170583115 60, 13.714936588337693 60, 83.375 60" stroke="#9370DB" stroke-width="1.3" fill="none" stroke-dasharray="0 0" style=""/></g></g><g class="node default" id="classId-Claim-1" transform="translate(106.8828125, 322)"><g class="basic label-container"><path d="M-98.8828125 -96 L98.8828125 -96 L98.8828125 96 L-98.8828125 96" stroke="none" stroke-width="0" fill="#ECECFF" style=""/><path d="M-98.8828125 -96 C-30.10421835970793 -96, 38.67437578058414 -96, 98.8828125 -96 M-98.8828125 -96 C-56.19536081520262 -96, -13.507909130405238 -96, 98.8828125 -96 M98.8828125 -96 C98.8828125 -36.994508605309775, 98.8828125 22.01098278938045, 98.8828125 96 M98.8828125 -96 C98.8828125 -52.70213865219383, 98.8828125 -9.404277304387662, 98.8828125 96 M98.8828125 96 C58.63344105996274 96, 18.384069619925484 96, -98.8828125 96 M98.8828125 96 C41.61533020523123 96, -15.652152089537537 96, -98.8828125 96 M-98.8828125 96 C-98.8828125 44.553998575650496, -98.8828125 -6.892002848699008, -98.8828125 -96 M-98.8828125 96 C-98.8828125 45.11174007376671, -98.8828125 -5.776519852466578, -98.8828125 -96" stroke="#9370DB" stroke-width="1.3" fill="none" stroke-dasharray="0 0" style=""/></g><g class="annotation-group text" transform="translate(0, -72)"/><g class="label-group text" transform="translate(-20.78125, -72)"><g class="label" style="font-weight: bolder" transform="translate(0,-12)"><foreignObject width="41.5625" height="24"><div xmlns="http://www.w3.org/1999/xhtml" style="display: table-cell; white-space: nowrap; line-height: 1.5; max-width: 89px; text-align: center;"><span class="nodeLabel markdown-node-label" style=""><p>Claim</p></span></div></foreignObject></g></g><g class="members-group text" transform="translate(-86.8828125, -24)"><g class="label" style="" transform="translate(0,-12)"><foreignObject width="67.5625" height="24"><div xmlns="http://www.w3.org/1999/xhtml" style="display: table-cell; white-space: nowrap; line-height: 1.5; max-width: 112px; text-align: center;"><span class="nodeLabel markdown-node-label" style=""><p>+text: str</p></span></div></foreignObject></g><g class="label" style="" transform="translate(0,12)"><foreignObject width="124.890625" height="24"><div xmlns="http://www.w3.org/1999/xhtml" style="display: table-cell; white-space: nowrap; line-height: 1.5; max-width: 167px; text-align: center;"><span class="nodeLabel markdown-node-label" style=""><p>+source_ids: str[]</p></span></div></foreignObject></g><g class="label" style="" transform="translate(0,36)"><foreignObject width="119.203125" height="24"><div xmlns="http://www.w3.org/1999/xhtml" style="display: table-cell; white-space: nowrap; line-height: 1.5; max-width: 156px; text-align: center;"><span class="nodeLabel markdown-node-label" style=""><p>+truth_state: str</p></span></div></foreignObject></g><g class="label" style="" transform="translate(0,60)"><foreignObject width="152.984375" height="24"><div xmlns="http://www.w3.org/1999/xhtml" style="display: table-cell; white-space: nowrap; line-height: 1.5; max-width: 194px; text-align: center;"><span class="nodeLabel markdown-node-label" style=""><p>+cross_checked: bool</p></span></div></foreignObject></g></g><g class="methods-group text" transform="translate(-86.8828125, 96)"/><g class="divider" style=""><path d="M-98.8828125 -48 C-44.53232586379337 -48, 9.818160772413265 -48, 98.8828125 -48 M-98.8828125 -48 C-39.28795522080966 -48, 20.306902058380686 -48, 98.8828125 -48" stroke="#9370DB" stroke-width="1.3" fill="none" stroke-dasharray="0 0" style=""/></g><g class="divider" style=""><path d="M-98.8828125 72 C-51.72417045298497 72, -4.565528405969943 72, 98.8828125 72 M-98.8828125 72 C-25.274648123370824 72, 48.33351625325835 72, 98.8828125 72" stroke="#9370DB" stroke-width="1.3" fill="none" stroke-dasharray="0 0" style=""/></g></g><g class="node default" id="classId-Finding-2" transform="translate(116.8828125, 540)"><g class="basic label-container"><path d="M-75.21875 -72 L75.21875 -72 L75.21875 72 L-75.21875 72" stroke="none" stroke-width="0" fill="#ECECFF" style=""/><path d="M-75.21875 -72 C-24.295244802646778 -72, 26.628260394706444 -72, 75.21875 -72 M-75.21875 -72 C-44.07122035275766 -72, -12.92369070551532 -72, 75.21875 -72 M75.21875 -72 C75.21875 -42.03110362491768, 75.21875 -12.06220724983536, 75.21875 72 M75.21875 -72 C75.21875 -17.98198034599168, 75.21875 36.03603930801664, 75.21875 72 M75.21875 72 C29.426230957610557 72, -16.366288084778887 72, -75.21875 72 M75.21875 72 C16.373773559168093 72, -42.471202881663814 72, -75.21875 72 M-75.21875 72 C-75.21875 26.41428273533527, -75.21875 -19.17143452932946, -75.21875 -72 M-75.21875 72 C-75.21875 17.43502566621153, -75.21875 -37.12994866757694, -75.21875 -72" stroke="#9370DB" stroke-width="1.3" fill="none" stroke-dasharray="0 0" style=""/></g><g class="annotation-group text" transform="translate(0, -48)"/><g class="label-group text" transform="translate(-27.546875, -48)"><g class="label" style="font-weight: bolder" transform="translate(0,-12)"><foreignObject width="55.09375" height="24"><div xmlns="http://www.w3.org/1999/xhtml" style="display: table-cell; white-space: nowrap; line-height: 1.5; max-width: 100px; text-align: center;"><span class="nodeLabel markdown-node-label" style=""><p>Finding</p></span></div></foreignObject></g></g><g class="members-group text" transform="translate(-63.21875, 0)"><g class="label" style="" transform="translate(0,-12)"><foreignObject width="98.890625" height="24"><div xmlns="http://www.w3.org/1999/xhtml" style="display: table-cell; white-space: nowrap; line-height: 1.5; max-width: 144px; text-align: center;"><span class="nodeLabel markdown-node-label" style=""><p>+claim_id: str</p></span></div></foreignObject></g><g class="label" style="" transform="translate(0,12)"><foreignObject width="74.421875" height="24"><div xmlns="http://www.w3.org/1999/xhtml" style="display: table-cell; white-space: nowrap; line-height: 1.5; max-width: 117px; text-align: center;"><span class="nodeLabel markdown-node-label" style=""><p>+state: str</p></span></div></foreignObject></g></g><g class="methods-group text" transform="translate(-63.21875, 72)"/><g class="divider" style=""><path d="M-75.21875 -24 C-20.033543698786303 -24, 35.15166260242739 -24, 75.21875 -24 M-75.21875 -24 C-31.411734230155766 -24, 12.395281539688469 -24, 75.21875 -24" stroke="#9370DB" stroke-width="1.3" fill="none" stroke-dasharray="0 0" style=""/></g><g class="divider" style=""><path d="M-75.21875 48 C-16.243044463282672 48, 42.732661073434656 48, 75.21875 48 M-75.21875 48 C-17.206161369599755 48, 40.80642726080049 48, 75.21875 48" stroke="#9370DB" stroke-width="1.3" fill="none" stroke-dasharray="0 0" style=""/></g></g><g class="node default" id="classId-Checkpoint-3" transform="translate(365.333984375, 540)"><g class="basic label-container"><path d="M-122.51953125 -72 L122.51953125 -72 L122.51953125 72 L-122.51953125 72" stroke="none" stroke-width="0" fill="#ECECFF" style=""/><path d="M-122.51953125 -72 C-61.50986433388805 -72, -0.500197417776107 -72, 122.51953125 -72 M-122.51953125 -72 C-62.11101339279 -72, -1.7024955355799989 -72, 122.51953125 -72 M122.51953125 -72 C122.51953125 -41.96568990448, 122.51953125 -11.931379808959996, 122.51953125 72 M122.51953125 -72 C122.51953125 -22.621712865384097, 122.51953125 26.756574269231805, 122.51953125 72 M122.51953125 72 C58.26126127944843 72, -5.997008691103133 72, -122.51953125 72 M122.51953125 72 C60.23638905308665 72, -2.046753143826706 72, -122.51953125 72 M-122.51953125 72 C-122.51953125 34.050104583719104, -122.51953125 -3.8997908325617914, -122.51953125 -72 M-122.51953125 72 C-122.51953125 31.824561408237734, -122.51953125 -8.350877183524531, -122.51953125 -72" stroke="#9370DB" stroke-width="1.3" fill="none" stroke-dasharray="0 0" style=""/></g><g class="annotation-group text" transform="translate(0, -48)"/><g class="label-group text" transform="translate(-42.1796875, -48)"><g class="label" style="font-weight: bolder" transform="translate(0,-12)"><foreignObject width="84.359375" height="24"><div xmlns="http://www.w3.org/1999/xhtml" style="display: table-cell; white-space: nowrap; line-height: 1.5; max-width: 124px; text-align: center;"><span class="nodeLabel markdown-node-label" style=""><p>Checkpoint</p></span></div></foreignObject></g></g><g class="members-group text" transform="translate(-110.51953125, 0)"><g class="label" style="" transform="translate(0,-12)"><foreignObject width="178.859375" height="24"><div xmlns="http://www.w3.org/1999/xhtml" style="display: table-cell; white-space: nowrap; line-height: 1.5; max-width: 212px; text-align: center;"><span class="nodeLabel markdown-node-label" style=""><p>+completed_stages: str[]</p></span></div></foreignObject></g><g class="label" style="" transform="translate(0,12)"><foreignObject width="114.90625" height="24"><div xmlns="http://www.w3.org/1999/xhtml" style="display: table-cell; white-space: nowrap; line-height: 1.5; max-width: 157px; text-align: center;"><span class="nodeLabel markdown-node-label" style=""><p>+cost_usd: float</p></span></div></foreignObject></g></g><g class="methods-group text" transform="translate(-110.51953125, 72)"/><g class="divider" style=""><path d="M-122.51953125 -24 C-66.51605092294251 -24, -10.512570595885023 -24, 122.51953125 -24 M-122.51953125 -24 C-56.15901328046061 -24, 10.201504689078774 -24, 122.51953125 -24" stroke="#9370DB" stroke-width="1.3" fill="none" stroke-dasharray="0 0" style=""/></g><g class="divider" style=""><path d="M-122.51953125 48 C-70.01084950924789 48, -17.50216776849578 48, 122.51953125 48 M-122.51953125 48 C-31.872811339408003 48, 58.773908571183995 48, 122.51953125 48" stroke="#9370DB" stroke-width="1.3" fill="none" stroke-dasharray="0 0" style=""/></g></g><g class="node default" id="classId-PaperRun-4" transform="translate(355.333984375, 322)"><g class="basic label-container"><path d="M-80.28125 -72 L80.28125 -72 L80.28125 72 L-80.28125 72" stroke="none" stroke-width="0" fill="#ECECFF" style=""/><path d="M-80.28125 -72 C-37.15498802619872 -72, 5.971273947602555 -72, 80.28125 -72 M-80.28125 -72 C-16.608520821677715 -72, 47.06420835664457 -72, 80.28125 -72 M80.28125 -72 C80.28125 -20.128383365939143, 80.28125 31.743233268121713, 80.28125 72 M80.28125 -72 C80.28125 -34.12649009989555, 80.28125 3.7470198002089035, 80.28125 72 M80.28125 72 C42.32839090344311 72, 4.375531806886215 72, -80.28125 72 M80.28125 72 C47.56767479101119 72, 14.854099582022386 72, -80.28125 72 M-80.28125 72 C-80.28125 22.611835788422944, -80.28125 -26.776328423154112, -80.28125 -72 M-80.28125 72 C-80.28125 40.16504062549586, -80.28125 8.330081250991718, -80.28125 -72" stroke="#9370DB" stroke-width="1.3" fill="none" stroke-dasharray="0 0" style=""/></g><g class="annotation-group text" transform="translate(0, -48)"/><g class="label-group text" transform="translate(-35.59375, -48)"><g class="label" style="font-weight: bolder" transform="translate(0,-12)"><foreignObject width="71.1875" height="24"><div xmlns="http://www.w3.org/1999/xhtml" style="display: table-cell; white-space: nowrap; line-height: 1.5; max-width: 113px; text-align: center;"><span class="nodeLabel markdown-node-label" style=""><p>PaperRun</p></span></div></foreignObject></g></g><g class="members-group text" transform="translate(-68.28125, 0)"><g class="label" style="" transform="translate(0,-12)"><foreignObject width="100.96875" height="24"><div xmlns="http://www.w3.org/1999/xhtml" style="display: table-cell; white-space: nowrap; line-height: 1.5; max-width: 147px; text-align: center;"><span class="nodeLabel markdown-node-label" style=""><p>+publish: bool</p></span></div></foreignObject></g></g><g class="methods-group text" transform="translate(-68.28125, 48)"><g class="label" style="" transform="translate(0,-12)"><foreignObject width="89.703125" height="24"><div xmlns="http://www.w3.org/1999/xhtml" style="display: table-cell; white-space: nowrap; line-height: 1.5; max-width: 133px; text-align: center;"><span class="nodeLabel markdown-node-label" style=""><p>+run() : : int</p></span></div></foreignObject></g></g><g class="divider" style=""><path d="M-80.28125 -24 C-46.10075603258041 -24, -11.920262065160827 -24, 80.28125 -24 M-80.28125 -24 C-26.197249982622402 -24, 27.886750034755195 -24, 80.28125 -24" stroke="#9370DB" stroke-width="1.3" fill="none" stroke-dasharray="0 0" style=""/></g><g class="divider" style=""><path d="M-80.28125 24 C-26.19958601984594 24, 27.882077960308123 24, 80.28125 24 M-80.28125 24 C-25.47767911779929 24, 29.32589176440142 24, 80.28125 24" stroke="#9370DB" stroke-width="1.3" fill="none" stroke-dasharray="0 0" style=""/></g></g></g></g></g></svg>