<svg xmlns="http://www.w3.org/2000/svg" xmlns:xlink="http://www.w3.org/1999/xlink" contentStyleType="text/css" data-diagram-type="DESCRIPTION" height="382px" preserveAspectRatio="none" style="width:1039px;height:382px;background:#FFFFFF;" version="1.1" viewBox="0 0 1039 382" width="1039px" zoomAndPan="magnify"><defs/><g><!--cluster Deep Agents white paper pipeline--><g class="cluster" data-entity="Deep Agents white paper pipeline" data-source-line="6" data-uid="ent0006" id="cluster_Deep Agents white paper pipeline"><rect fill="none" height="315" rx="2.5" ry="2.5" style="stroke:#181818;stroke-width:1;" width="730.98" x="179.25" y="7"/><text fill="#000000" font-family="sans-serif" font-size="14" font-weight="bold" lengthAdjust="spacing" textLength="244.6377" x="422.4212" y="22.5352">Deep Agents white paper pipeline</text></g><!--entity Plan--><g class="entity" data-entity="Plan" data-source-line="7" data-uid="ent0007" id="entity_Plan"><ellipse cx="298.9187" cy="285.0037" fill="#F1F1F1" rx="94.5187" ry="21.3037" style="stroke:#181818;stroke-width:0.5;"/><text fill="#000000" font-family="sans-serif" font-size="14" lengthAdjust="spacing" textLength="163.4199" x="217.2087" y="289.7479">Plan bounded questions</text></g><!--entity Research--><g class="entity" data-entity="Research" data-source-line="8" data-uid="ent0008" id="entity_Research"><ellipse cx="298.9234" cy="130.0047" fill="#F1F1F1" rx="103.6734" ry="23.1347" style="stroke:#181818;stroke-width:0.5;"/><text fill="#000000" font-family="sans-serif" font-size="14" lengthAdjust="spacing" textLength="183.6953" x="207.0758" y="134.7488">Research and filter sources</text></g><!--entity Verify--><g class="entity" data-entity="Verify" data-source-line="9" data-uid="ent0009" id="entity_Verify"><ellipse cx="298.9241" cy="57.0028" fill="#F1F1F1" rx="62.8641" ry="14.9728" style="stroke:#181818;stroke-width:0.5;"/><text fill="#000000" font-family="sans-serif" font-size="14" lengthAdjust="spacing" textLength="86.8232" x="255.5125" y="61.747">Verify claims</text></g><!--entity Diagram--><g class="entity" data-entity="Diagram" data-source-line="10" data-uid="ent0010" id="entity_Diagram"><ellipse cx="298.9233" cy="207.9967" fill="#F1F1F1" rx="88.9833" ry="20.1967" style="stroke:#181818;stroke-width:0.5;"/><text fill="#000000" font-family="sans-serif" font-size="14" lengthAdjust="spacing" textLength="150.917" x="223.4648" y="212.7408">Render judged figures</text></g><!--entity Paper--><g class="entity" data-entity="Paper" data-source-line="11" data-uid="ent0011" id="entity_Paper"><ellipse cx="553.6352" cy="246.999" fill="#F1F1F1" rx="91.0452" ry="20.609" style="stroke:#181818;stroke-width:0.5;"/><text fill="#000000" font-family="sans-serif" font-size="14" lengthAdjust="spacing" textLength="155.5996" x="475.8354" y="251.7432">Write and review paper</text></g><!--entity Publish--><g class="entity" data-entity="Publish" data-source-line="12" data-uid="ent0012" id="entity_Publish"><ellipse cx="799.4551" cy="265.995" fill="#F1F1F1" rx="94.7751" ry="21.355" style="stroke:#181818;stroke-width:0.5;"/><text fill="#000000" font-family="sans-serif" font-size="14" lengthAdjust="spacing" textLength="163.9941" x="717.458" y="270.7392">Hard-check and publish</text></g><!--entity Operator--><g class="entity" data-entity="Operator" data-source-line="2" data-uid="ent0002" id="entity_Operator"><ellipse cx="70.6259" cy="309.25" fill="#F1F1F1" rx="8" ry="8" style="stroke:#181818;stroke-width:0.5;"/><path d="M70.6259,317.25 L70.6259,344.25 M57.6259,325.25 L83.6259,325.25 M70.6259,344.25 L57.6259,359.25 M70.6259,344.25 L83.6259,359.25" fill="none" style="stroke:#181818;stroke-width:0.5;"/><text fill="#000000" font-family="sans-serif" font-size="14" lengthAdjust="spacing" textLength="60.5117" x="40.37" y="374.2852">Operator</text></g><!--entity Sources--><g class="entity" data-entity="Sources" data-source-line="3" data-uid="ent0003" id="entity_Sources"><ellipse cx="70.6235" cy="47.25" fill="#F1F1F1" rx="8" ry="8" style="stroke:#181818;stroke-width:0.5;"/><path d="M70.6235,55.25 L70.6235,82.25 M57.6235,63.25 L83.6235,63.25 M70.6235,82.25 L57.6235,97.25 M70.6235,82.25 L83.6235,97.25" fill="none" style="stroke:#181818;stroke-width:0.5;"/><text fill="#000000" font-family="sans-serif" font-size="14" lengthAdjust="spacing" textLength="129.2471" x="6" y="112.2852">Research providers</text></g><!--entity Images--><g class="entity" data-entity="Images" data-source-line="4" data-uid="ent0004" id="entity_Images"><ellipse cx="70.6251" cy="178.25" fill="#F1F1F1" rx="8" ry="8" style="stroke:#181818;stroke-width:0.5;"/><path d="M70.6251,186.25 L70.6251,213.25 M57.6251,194.25 L83.6251,194.25 M70.6251,213.25 L57.6251,228.25 M70.6251,213.25 L83.6251,228.25" fill="none" style="stroke:#181818;stroke-width:0.5;"/><text fill="#000000" font-family="sans-serif" font-size="14" lengthAdjust="spacing" textLength="102.9902" x="19.13" y="243.2852">Image backend</text></g><!--entity Gist--><g class="entity" data-entity="Gist" data-source-line="5" data-uid="ent0005" id="entity_Gist"><ellipse cx="993.1778" cy="236.25" fill="#F1F1F1" rx="8" ry="8" style="stroke:#181818;stroke-width:0.5;"/><path d="M993.1778,244.25 L993.1778,271.25 M980.1778,252.25 L1006.1778,252.25 M993.1778,271.25 L980.1778,286.25 M993.1778,271.25 L1006.1778,286.25" fill="none" style="stroke:#181818;stroke-width:0.5;"/><text fill="#000000" font-family="sans-serif" font-size="14" lengthAdjust="spacing" textLength="77.8955" x="954.23" y="301.2852">Gist service</text></g><!--link Operator to Plan--><g class="link" data-entity-1="Operator" data-entity-2="Plan" data-source-line="14" data-uid="lnk13" id="link_Operator_Plan"><path d="M101.21,331.94 C134.39,324.02 183.414,312.3231 226.774,301.9731" fill="none" id="Operator-to-Plan" style="stroke:#181818;stroke-width:1;"/><polygon fill="#181818" points="232.61,300.58,222.9272,298.7789,227.7466,301.7409,224.7846,306.5603,232.61,300.58" style="stroke:#181818;stroke-width:1;"/></g><!--link Operator to Publish--><g class="link" data-entity-1="Operator" data-entity-2="Publish" data-source-line="15" data-uid="lnk14" id="link_Operator_Publish"><path d="M101.36,338.65 C159.4,337.74 291.8,334.6 402.59,324 C515.13,313.23 638.6552,293.7175 718.0252,280.1975" fill="none" id="Operator-to-Publish" style="stroke:#181818;stroke-width:1;"/><polygon fill="#181818" points="723.94,279.19,714.3961,276.7581,719.011,280.0296,715.7395,284.6445,723.94,279.19" style="stroke:#181818;stroke-width:1;"/></g><!--link Sources to Research--><g class="link" data-entity-1="Sources" data-entity-2="Research" data-source-line="16" data-uid="lnk15" id="link_Sources_Research"><path d="M135.56,91.97 C163.8,98.58 191.2581,105.0119 220.3381,111.8219" fill="none" id="Sources-to-Research" style="stroke:#181818;stroke-width:1;"/><polygon fill="#181818" points="226.18,113.19,218.3291,107.2433,221.3117,112.0499,216.505,115.0325,226.18,113.19" style="stroke:#181818;stroke-width:1;"/></g><!--link Sources to Verify--><g class="link" data-entity-1="Sources" data-entity-2="Verify" data-source-line="17" data-uid="lnk16" id="link_Sources_Verify"><path d="M135.56,71.34 C168.24,68.46 201.7334,65.4992 233.5834,62.6792" fill="none" id="Sources-to-Verify" style="stroke:#181818;stroke-width:1;"/><polygon fill="#181818" points="239.56,62.15,230.2423,58.9593,234.5795,62.591,230.9479,66.9282,239.56,62.15" style="stroke:#181818;stroke-width:1;"/></g><!--link Images to Diagram--><g class="link" data-entity-1="Images" data-entity-2="Diagram" data-source-line="18" data-uid="lnk17" id="link_Images_Diagram"><path d="M122.41,208 C148.08,208 173.98,208 203.52,208" fill="none" id="Images-to-Diagram" style="stroke:#181818;stroke-width:1;"/><polygon fill="#181818" points="209.52,208,200.52,204,204.52,208,200.52,212,209.52,208" style="stroke:#181818;stroke-width:1;"/></g><!--link Diagram to Paper--><g class="link" data-entity-1="Diagram" data-entity-2="Paper" data-source-line="19" data-uid="lnk18" id="link_Diagram_Paper"><path d="M373.36,219.33 C406,224.37 438.4702,229.3751 471.3302,234.4451" fill="none" id="Diagram-to-Paper" style="stroke:#181818;stroke-width:1;"/><polygon fill="#181818" points="477.26,235.36,468.9752,230.0344,472.3185,234.5976,467.7553,237.9408,477.26,235.36" style="stroke:#181818;stroke-width:1;"/></g><!--link Paper to Publish--><g class="link" data-entity-1="Paper" data-entity-2="Publish" data-source-line="20" data-uid="lnk19" id="link_Paper_Publish"><path d="M640.26,253.67 C662.62,255.41 680.7982,256.8231 703.3482,258.5831" fill="none" id="Paper-to-Publish" style="stroke:#181818;stroke-width:1;"/><polygon fill="#181818" points="709.33,259.05,700.6685,254.3618,704.3452,258.6609,700.046,262.3376,709.33,259.05" style="stroke:#181818;stroke-width:1;"/></g><!--link Publish to Gist--><g class="link" data-entity-1="Publish" data-entity-2="Gist" data-source-line="21" data-uid="lnk20" id="link_Publish_Gist"><path d="M894.64,266 C915.66,266 930.79,266 947.98,266" fill="none" id="Publish-to-Gist" style="stroke:#181818;stroke-width:1;"/><polygon fill="#181818" points="953.98,266,944.98,262,948.98,266,944.98,270,953.98,266" style="stroke:#181818;stroke-width:1;"/></g><!--SRC=[LL7BJiGm3BptAwpUznUGa5O2JY2GuEmctjHiccQTf2k4-7UQHrVTI-ACnvCPsT8fGfn1s8mHD0kfoBFhKCLPuDMJu5gqP_zEWL3K25xcXJL9w043VCn958MDzJAX8HXGdSdfGYZ8hV_48K8WMLXHQMUWop-ZCvQWFn9vU3JaOe3ho970u-e4F7koxDQXtmuW1L8OLlgRHGV3d9mc3PT48IUepd9hJxq5GAVXn3Qkgg6wB_ojlv_v9E7J3oYBF5LMHUvrryy5lfCsb8LDagPuP3I2qvxy9JbITY2qC5rhkketLtlkCue-g97KkGpuD5WEO-NMkllhjZN1uV1G8zyZZTZMLB1Rq3tOSjLj5MHpt-ugLpoMyqw-tGNB6_q7]--></g></svg>