<svg id="my-svg" width="100%" xmlns="http://www.w3.org/2000/svg" xmlns:xlink="http://www.w3.org/1999/xlink" class="classDiagram" style="max-width: 636.594px; background-color: transparent;" viewBox="0 0 636.59375 402" role="graphics-document document" aria-roledescription="class"><style>#my-svg{font-family:"trebuchet ms",verdana,arial,sans-serif;font-size:16px;fill:#333;}@keyframes edge-animation-frame{from{stroke-dashoffset:0;}}@keyframes dash{to{stroke-dashoffset:0;}}#my-svg .edge-animation-slow{stroke-dasharray:9,5!important;stroke-dashoffset:900;animation:dash 50s linear infinite;stroke-linecap:round;}#my-svg .edge-animation-fast{stroke-dasharray:9,5!important;stroke-dashoffset:900;animation:dash 20s linear infinite;stroke-linecap:round;}#my-svg .error-icon{fill:#552222;}#my-svg .error-text{fill:#552222;stroke:#552222;}#my-svg .edge-thickness-normal{stroke-width:1px;}#my-svg .edge-thickness-thick{stroke-width:3.5px;}#my-svg .edge-pattern-solid{stroke-dasharray:0;}#my-svg .edge-thickness-invisible{stroke-width:0;fill:none;}#my-svg .edge-pattern-dashed{stroke-dasharray:3;}#my-svg .edge-pattern-dotted{stroke-dasharray:2;}#my-svg .marker{fill:#333333;stroke:#333333;}#my-svg .marker.cross{stroke:#333333;}#my-svg svg{font-family:"trebuchet ms",verdana,arial,sans-serif;font-size:16px;}#my-svg p{margin:0;}#my-svg g.classGroup text{fill:#9370DB;stroke:none;font-family:"trebuchet ms",verdana,arial,sans-serif;font-size:10px;}#my-svg g.classGroup text .title{font-weight:bolder;}#my-svg .nodeLabel,#my-svg .edgeLabel{color:#131300;}#my-svg .edgeLabel .label rect{fill:#ECECFF;}#my-svg .label text{fill:#131300;}#my-svg .labelBkg{background:#ECECFF;}#my-svg .edgeLabel .label span{background:#ECECFF;}#my-svg .classTitle{font-weight:bolder;}#my-svg .node rect,#my-svg .node circle,#my-svg .node ellipse,#my-svg .node polygon,#my-svg .node path{fill:#ECECFF;stroke:#9370DB;stroke-width:1px;}#my-svg .divider{stroke:#9370DB;stroke-width:1;}#my-svg g.clickable{cursor:pointer;}#my-svg g.classGroup rect{fill:#ECECFF;stroke:#9370DB;}#my-svg g.classGroup line{stroke:#9370DB;stroke-width:1;}#my-svg .classLabel .box{stroke:none;stroke-width:0;fill:#ECECFF;opacity:0.5;}#my-svg .classLabel .label{fill:#9370DB;font-size:10px;}#my-svg .relation{stroke:#333333;stroke-width:1;fill:none;}#my-svg .dashed-line{stroke-dasharray:3;}#my-svg .dotted-line{stroke-dasharray:1 2;}#my-svg #compositionStart,#my-svg .composition{fill:#333333!important;stroke:#333333!important;stroke-width:1;}#my-svg #compositionEnd,#my-svg .composition{fill:#333333!important;stroke:#333333!important;stroke-width:1;}#my-svg #dependencyStart,#my-svg .dependency{fill:#333333!important;stroke:#333333!important;stroke-width:1;}#my-svg #dependencyStart,#my-svg .dependency{fill:#333333!important;stroke:#333333!important;stroke-width:1;}#my-svg #extensionStart,#my-svg .extension{fill:transparent!important;stroke:#333333!important;stroke-width:1;}#my-svg #extensionEnd,#my-svg .extension{fill:transparent!important;stroke:#333333!important;stroke-width:1;}#my-svg #aggregationStart,#my-svg .aggregation{fill:transparent!important;stroke:#333333!important;stroke-width:1;}#my-svg #aggregationEnd,#my-svg .aggregation{fill:transparent!important;stroke:#333333!important;stroke-width:1;}#my-svg #lollipopStart,#my-svg .lollipop{fill:#ECECFF!important;stroke:#333333!important;stroke-width:1;}#my-svg #lollipopEnd,#my-svg .lollipop{fill:#ECECFF!important;stroke:#333333!important;stroke-width:1;}#my-svg .edgeTerminals{font-size:11px;line-height:initial;}#my-svg .classTitleText{text-anchor:middle;font-size:18px;fill:#333;}#my-svg .label-icon{display:inline-block;height:1em;overflow:visible;vertical-align:-0.125em;}#my-svg .node .label-icon path{fill:currentColor;stroke:revert;stroke-width:revert;}#my-svg :root{--mermaid-font-family:"trebuchet ms",verdana,arial,sans-serif;}</style><g><defs><marker id="my-svg_class-aggregationStart" class="marker aggregation class" refX="18" refY="7" markerWidth="190" markerHeight="240" orient="auto"><path d="M 18,7 L9,13 L1,7 L9,1 Z"/></marker></defs><defs><marker id="my-svg_class-aggregationEnd" class="marker aggregation class" refX="1" refY="7" markerWidth="20" markerHeight="28" orient="auto"><path d="M 18,7 L9,13 L1,7 L9,1 Z"/></marker></defs><defs><marker id="my-svg_class-extensionStart" class="marker extension class" refX="18" refY="7" markerWidth="190" markerHeight="240" orient="auto"><path d="M 1,7 L18,13 V 1 Z"/></marker></defs><defs><marker id="my-svg_class-extensionEnd" class="marker extension class" refX="1" refY="7" markerWidth="20" markerHeight="28" orient="auto"><path d="M 1,1 V 13 L18,7 Z"/></marker></defs><defs><marker id="my-svg_class-compositionStart" class="marker composition class" refX="18" refY="7" markerWidth="190" markerHeight="240" orient="auto"><path d="M 18,7 L9,13 L1,7 L9,1 Z"/></marker></defs><defs><marker id="my-svg_class-compositionEnd" class="marker composition class" refX="1" refY="7" markerWidth="20" markerHeight="28" orient="auto"><path d="M 18,7 L9,13 L1,7 L9,1 Z"/></marker></defs><defs><marker id="my-svg_class-dependencyStart" class="marker dependency class" refX="6" refY="7" markerWidth="190" markerHeight="240" orient="auto"><path d="M 5,7 L9,13 L1,7 L9,1 Z"/></marker></defs><defs><marker id="my-svg_class-dependencyEnd" class="marker dependency class" refX="13" refY="7" markerWidth="20" markerHeight="28" orient="auto"><path d="M 18,7 L9,13 L14,7 L9,1 Z"/></marker></defs><defs><marker id="my-svg_class-lollipopStart" class="marker lollipop class" refX="13" refY="7" markerWidth="190" markerHeight="240" orient="auto"><circle stroke="black" fill="transparent" cx="7" cy="7" r="6"/></marker></defs><defs><marker id="my-svg_class-lollipopEnd" class="marker lollipop class" refX="1" refY="7" markerWidth="190" markerHeight="240" orient="auto"><circle stroke="black" fill="transparent" cx="7" cy="7" r="6"/></marker></defs><g class="root"><g class="clusters"/><g class="edgePaths"><path d="M214.964,161.078L193.934,171.732C172.904,182.385,130.845,203.693,109.815,218.513C88.785,233.333,88.785,241.667,88.785,245.833L88.785,250" id="id_Ticket_Criterion_1" class="edge-thickness-normal edge-pattern-solid relation" style=";;;" data-edge="true" data-et="edge" data-id="id_Ticket_Criterion_1" data-points="W3sieCI6MjMwLjM1MTU2MjUsInkiOjE1My4yODI1OTA1NjM0MTQ4M30seyJ4Ijo4OC43ODUxNTYyNSwieSI6MjI1fSx7IngiOjg4Ljc4NTE1NjI1LCJ5IjoyNTB9XQ==" marker-start="url(#my-svg_class-aggregationStart)"/><path d="M327.633,200L327.633,204.167C327.633,208.333,327.633,216.667,327.633,224C327.633,231.333,327.633,237.667,327.633,240.833L327.633,244" id="id_Ticket_State_2" class="edge-thickness-normal edge-pattern-solid relation" style=";;;" data-edge="true" data-et="edge" data-id="id_Ticket_State_2" data-points="W3sieCI6MzI3LjYzMjgxMjUsInkiOjIwMH0seyJ4IjozMjcuNjMyODEyNSwieSI6MjI1fSx7IngiOjMyNy42MzI4MTI1LCJ5IjoyNTB9XQ==" marker-end="url(#my-svg_class-dependencyEnd)"/><path d="M424.914,155.287L446.952,166.906C468.991,178.525,513.068,201.762,535.106,216.548C557.145,231.333,557.145,237.667,557.145,240.833L557.145,244" id="id_Ticket_Outcome_3" class="edge-thickness-normal edge-pattern-solid relation" style=";;;" data-edge="true" data-et="edge" data-id="id_Ticket_Outcome_3" data-points="W3sieCI6NDI0LjkxNDA2MjUsInkiOjE1NS4yODcyNzc2Nzg0OTU0Nn0seyJ4Ijo1NTcuMTQ0NTMxMjUsInkiOjIyNX0seyJ4Ijo1NTcuMTQ0NTMxMjUsInkiOjI1MH1d" marker-end="url(#my-svg_class-dependencyEnd)"/></g><g class="edgeLabels"><g class="edgeLabel"><g class="label" data-id="id_Ticket_Criterion_1" transform="translate(0, 0)"><foreignObject width="0" height="0"><div xmlns="http://www.w3.org/1999/xhtml" class="labelBkg" style="display: table-cell; white-space: nowrap; line-height: 1.5; max-width: 200px; text-align: center;"><span class="edgeLabel"></span></div></foreignObject></g></g><g class="edgeLabel"><g class="label" data-id="id_Ticket_State_2" transform="translate(0, 0)"><foreignObject width="0" height="0"><div xmlns="http://www.w3.org/1999/xhtml" class="labelBkg" style="display: table-cell; white-space: nowrap; line-height: 1.5; max-width: 200px; text-align: center;"><span class="edgeLabel"></span></div></foreignObject></g></g><g class="edgeLabel"><g class="label" data-id="id_Ticket_Outcome_3" transform="translate(0, 0)"><foreignObject width="0" height="0"><div xmlns="http://www.w3.org/1999/xhtml" class="labelBkg" style="display: table-cell; white-space: nowrap; line-height: 1.5; max-width: 200px; text-align: center;"><span class="edgeLabel"></span></div></foreignObject></g></g><g class="edgeTerminals" transform="translate(207.96175864197215, 147.81023422538257)"><g class="inner" transform="translate(0, 0)"><foreignObject style="width: 9px; height: 12px;"><div xmlns="http://www.w3.org/1999/xhtml" style="display: inline-block; padding-right: 1px; white-space: nowrap;"><span class="edgeLabel">1</span></div></foreignObject></g></g><g class="edgeTerminals" transform="translate(312.6328112500001, 217.49999892857144)"><g class="inner" transform="translate(0, 0)"><foreignObject style="width: 9px; height: 12px;"><div xmlns="http://www.w3.org/1999/xhtml" style="display: inline-block; padding-right: 1px; white-space: nowrap;"><span class="edgeLabel">1</span></div></foreignObject></g></g><g class="edgeTerminals" transform="translate(433.3989982884395, 176.71753386212453)"><g class="inner" transform="translate(0, 0)"><foreignObject style="width: 9px; height: 12px;"><div xmlns="http://www.w3.org/1999/xhtml" style="display: inline-block; padding-right: 1px; white-space: nowrap;"><span class="edgeLabel">1</span></div></foreignObject></g></g><g class="edgeTerminals" transform="translate(102.60414097821688, 234.57956546071642)"><g class="inner" transform="translate(0, 0)"/><foreignObject style="width: 36px; height: 12px;"><div xmlns="http://www.w3.org/1999/xhtml" style="display: inline-block; padding-right: 1px; white-space: nowrap;"><span class="edgeLabel">many</span></div></foreignObject></g><g class="edgeTerminals" transform="translate(337.63281125, 227.49999892857144)"><g class="inner" transform="translate(0, 0)"/><foreignObject style="width: 9px; height: 12px;"><div xmlns="http://www.w3.org/1999/xhtml" style="display: inline-block; padding-right: 1px; white-space: nowrap;"><span class="edgeLabel">1</span></div></foreignObject></g><g class="edgeTerminals" transform="translate(562.0960301814973, 225.881604927961)"><g class="inner" transform="translate(0, 0)"/><foreignObject style="width: 9px; height: 12px;"><div xmlns="http://www.w3.org/1999/xhtml" style="display: inline-block; padding-right: 1px; white-space: nowrap;"><span class="edgeLabel">1</span></div></foreignObject></g></g><g class="nodes"><g class="node default" id="classId-Ticket-0" transform="translate(327.6328125, 104)"><g class="basic label-container"><path d="M-97.28125 -96 L97.28125 -96 L97.28125 96 L-97.28125 96" stroke="none" stroke-width="0" fill="#ECECFF" style=""/><path d="M-97.28125 -96 C-19.540301473397435 -96, 58.20064705320513 -96, 97.28125 -96 M-97.28125 -96 C-35.75214096343481 -96, 25.776968073130377 -96, 97.28125 -96 M97.28125 -96 C97.28125 -49.64143832539889, 97.28125 -3.2828766507977747, 97.28125 96 M97.28125 -96 C97.28125 -54.00474751470855, 97.28125 -12.009495029417096, 97.28125 96 M97.28125 96 C49.451011579759694 96, 1.6207731595193877 96, -97.28125 96 M97.28125 96 C44.434146653875295 96, -8.41295669224941 96, -97.28125 96 M-97.28125 96 C-97.28125 35.02831572743587, -97.28125 -25.943368545128266, -97.28125 -96 M-97.28125 96 C-97.28125 19.689656815900975, -97.28125 -56.62068636819805, -97.28125 -96" stroke="#9370DB" stroke-width="1.3" fill="none" stroke-dasharray="0 0" style=""/></g><g class="annotation-group text" transform="translate(0, -72)"/><g class="label-group text" transform="translate(-23.234375, -72)"><g class="label" style="font-weight: bolder" transform="translate(0,-12)"><foreignObject width="46.46875" height="24"><div xmlns="http://www.w3.org/1999/xhtml" style="display: table-cell; white-space: nowrap; line-height: 1.5; max-width: 90px; text-align: center;"><span class="nodeLabel markdown-node-label" style=""><p>Ticket</p></span></div></foreignObject></g></g><g class="members-group text" transform="translate(-85.28125, -24)"><g class="label" style="" transform="translate(0,-12)"><foreignObject width="51.609375" height="24"><div xmlns="http://www.w3.org/1999/xhtml" style="display: table-cell; white-space: nowrap; line-height: 1.5; max-width: 100px; text-align: center;"><span class="nodeLabel markdown-node-label" style=""><p>+id: str</p></span></div></foreignObject></g><g class="label" style="" transform="translate(0,12)"><foreignObject width="68.421875" height="24"><div xmlns="http://www.w3.org/1999/xhtml" style="display: table-cell; white-space: nowrap; line-height: 1.5; max-width: 116px; text-align: center;"><span class="nodeLabel markdown-node-label" style=""><p>+kind: str</p></span></div></foreignObject></g><g class="label" style="" transform="translate(0,36)"><foreignObject width="72.4375" height="24"><div xmlns="http://www.w3.org/1999/xhtml" style="display: table-cell; white-space: nowrap; line-height: 1.5; max-width: 120px; text-align: center;"><span class="nodeLabel markdown-node-label" style=""><p>+body: str</p></span></div></foreignObject></g><g class="label" style="" transform="translate(0,60)"><foreignObject width="147.328125" height="24"><div xmlns="http://www.w3.org/1999/xhtml" style="display: table-cell; white-space: nowrap; line-height: 1.5; max-width: 186px; text-align: center;"><span class="nodeLabel markdown-node-label" style=""><p>+criteria: Criterion[]</p></span></div></foreignObject></g></g><g class="methods-group text" transform="translate(-85.28125, 96)"/><g class="divider" style=""><path d="M-97.28125 -48 C-41.24436245647196 -48, 14.792525087056077 -48, 97.28125 -48 M-97.28125 -48 C-25.16537454274183 -48, 46.95050091451634 -48, 97.28125 -48" stroke="#9370DB" stroke-width="1.3" fill="none" stroke-dasharray="0 0" style=""/></g><g class="divider" style=""><path d="M-97.28125 72 C-57.435336910832895 72, -17.58942382166579 72, 97.28125 72 M-97.28125 72 C-26.94348820629628 72, 43.39427358740744 72, 97.28125 72" stroke="#9370DB" stroke-width="1.3" fill="none" stroke-dasharray="0 0" style=""/></g></g><g class="node default" id="classId-Criterion-1" transform="translate(88.78515625, 322)"><g class="basic label-container"><path d="M-80.78515625 -72 L80.78515625 -72 L80.78515625 72 L-80.78515625 72" stroke="none" stroke-width="0" fill="#ECECFF" style=""/><path d="M-80.78515625 -72 C-44.983788390330105 -72, -9.18242053066021 -72, 80.78515625 -72 M-80.78515625 -72 C-25.685601636655896 -72, 29.413952976688208 -72, 80.78515625 -72 M80.78515625 -72 C80.78515625 -35.525135135389306, 80.78515625 0.9497297292213887, 80.78515625 72 M80.78515625 -72 C80.78515625 -25.331241021552877, 80.78515625 21.337517956894246, 80.78515625 72 M80.78515625 72 C24.401298493132124 72, -31.98255926373575 72, -80.78515625 72 M80.78515625 72 C40.398723100347446 72, 0.012289950694892582 72, -80.78515625 72 M-80.78515625 72 C-80.78515625 39.70227171309985, -80.78515625 7.4045434261996945, -80.78515625 -72 M-80.78515625 72 C-80.78515625 26.589703772343633, -80.78515625 -18.820592455312735, -80.78515625 -72" stroke="#9370DB" stroke-width="1.3" fill="none" stroke-dasharray="0 0" style=""/></g><g class="annotation-group text" transform="translate(0, -48)"/><g class="label-group text" transform="translate(-33.5234375, -48)"><g class="label" style="font-weight: bolder" transform="translate(0,-12)"><foreignObject width="67.046875" height="24"><div xmlns="http://www.w3.org/1999/xhtml" style="display: table-cell; white-space: nowrap; line-height: 1.5; max-width: 108px; text-align: center;"><span class="nodeLabel markdown-node-label" style=""><p>Criterion</p></span></div></foreignObject></g></g><g class="members-group text" transform="translate(-68.78515625, 0)"><g class="label" style="" transform="translate(0,-12)"><foreignObject width="77.28125" height="24"><div xmlns="http://www.w3.org/1999/xhtml" style="display: table-cell; white-space: nowrap; line-height: 1.5; max-width: 123px; text-align: center;"><span class="nodeLabel markdown-node-label" style=""><p>+name: str</p></span></div></foreignObject></g><g class="label" style="" transform="translate(0,12)"><foreignObject width="104.046875" height="24"><div xmlns="http://www.w3.org/1999/xhtml" style="display: table-cell; white-space: nowrap; line-height: 1.5; max-width: 147px; text-align: center;"><span class="nodeLabel markdown-node-label" style=""><p>+present: bool</p></span></div></foreignObject></g></g><g class="methods-group text" transform="translate(-68.78515625, 72)"/><g class="divider" style=""><path d="M-80.78515625 -24 C-28.51985133843909 -24, 23.74545357312182 -24, 80.78515625 -24 M-80.78515625 -24 C-17.653878312033882 -24, 45.477399625932236 -24, 80.78515625 -24" stroke="#9370DB" stroke-width="1.3" fill="none" stroke-dasharray="0 0" style=""/></g><g class="divider" style=""><path d="M-80.78515625 48 C-17.728937959897507 48, 45.327280330204985 48, 80.78515625 48 M-80.78515625 48 C-36.302882002330556 48, 8.179392245338889 48, 80.78515625 48" stroke="#9370DB" stroke-width="1.3" fill="none" stroke-dasharray="0 0" style=""/></g></g><g class="node default" id="classId-State-2" transform="translate(327.6328125, 322)"><g class="basic label-container"><path d="M-108.0625 -72 L108.0625 -72 L108.0625 72 L-108.0625 72" stroke="none" stroke-width="0" fill="#ECECFF" style=""/><path d="M-108.0625 -72 C-24.064361483857738 -72, 59.933777032284524 -72, 108.0625 -72 M-108.0625 -72 C-60.27407297439173 -72, -12.485645948783457 -72, 108.0625 -72 M108.0625 -72 C108.0625 -34.906451353852226, 108.0625 2.1870972922955474, 108.0625 72 M108.0625 -72 C108.0625 -37.479356701891, 108.0625 -2.9587134037819993, 108.0625 72 M108.0625 72 C47.61015907466139 72, -12.842181850677221 72, -108.0625 72 M108.0625 72 C33.751329167704284 72, -40.55984166459143 72, -108.0625 72 M-108.0625 72 C-108.0625 40.86309653183551, -108.0625 9.726193063671026, -108.0625 -72 M-108.0625 72 C-108.0625 23.145669753312575, -108.0625 -25.70866049337485, -108.0625 -72" stroke="#9370DB" stroke-width="1.3" fill="none" stroke-dasharray="0 0" style=""/></g><g class="annotation-group text" transform="translate(0, -48)"/><g class="label-group text" transform="translate(-19.296875, -48)"><g class="label" style="font-weight: bolder" transform="translate(0,-12)"><foreignObject width="38.59375" height="24"><div xmlns="http://www.w3.org/1999/xhtml" style="display: table-cell; white-space: nowrap; line-height: 1.5; max-width: 82px; text-align: center;"><span class="nodeLabel markdown-node-label" style=""><p>State</p></span></div></foreignObject></g></g><g class="members-group text" transform="translate(-96.0625, 0)"><g class="label" style="" transform="translate(0,-12)"><foreignObject width="79.9375" height="24"><div xmlns="http://www.w3.org/1999/xhtml" style="display: table-cell; white-space: nowrap; line-height: 1.5; max-width: 126px; text-align: center;"><span class="nodeLabel markdown-node-label" style=""><p>+round: int</p></span></div></foreignObject></g><g class="label" style="" transform="translate(0,12)"><foreignObject width="172.828125" height="24"><div xmlns="http://www.w3.org/1999/xhtml" style="display: table-cell; white-space: nowrap; line-height: 1.5; max-width: 210px; text-align: center;"><span class="nodeLabel markdown-node-label" style=""><p>+previous_signature: str</p></span></div></foreignObject></g></g><g class="methods-group text" transform="translate(-96.0625, 72)"/><g class="divider" style=""><path d="M-108.0625 -24 C-61.37293438863187 -24, -14.683368777263738 -24, 108.0625 -24 M-108.0625 -24 C-29.876508291188145 -24, 48.30948341762371 -24, 108.0625 -24" stroke="#9370DB" stroke-width="1.3" fill="none" stroke-dasharray="0 0" style=""/></g><g class="divider" style=""><path d="M-108.0625 48 C-51.62578605343402 48, 4.810927893131961 48, 108.0625 48 M-108.0625 48 C-55.91688165449076 48, -3.771263308981517 48, 108.0625 48" stroke="#9370DB" stroke-width="1.3" fill="none" stroke-dasharray="0 0" style=""/></g></g><g class="node default" id="classId-Outcome-3" transform="translate(557.14453125, 322)"><g class="basic label-container"><path d="M-71.44921875 -72 L71.44921875 -72 L71.44921875 72 L-71.44921875 72" stroke="none" stroke-width="0" fill="#ECECFF" style=""/><path d="M-71.44921875 -72 C-41.10187067422977 -72, -10.754522598459538 -72, 71.44921875 -72 M-71.44921875 -72 C-29.364362638578235 -72, 12.720493472843529 -72, 71.44921875 -72 M71.44921875 -72 C71.44921875 -42.58015336358166, 71.44921875 -13.160306727163317, 71.44921875 72 M71.44921875 -72 C71.44921875 -36.989261322167266, 71.44921875 -1.9785226443345323, 71.44921875 72 M71.44921875 72 C27.435852675474983 72, -16.577513399050034 72, -71.44921875 72 M71.44921875 72 C27.689738642225016 72, -16.069741465549967 72, -71.44921875 72 M-71.44921875 72 C-71.44921875 42.58071854526923, -71.44921875 13.161437090538456, -71.44921875 -72 M-71.44921875 72 C-71.44921875 24.01924991832489, -71.44921875 -23.961500163350223, -71.44921875 -72" stroke="#9370DB" stroke-width="1.3" fill="none" stroke-dasharray="0 0" style=""/></g><g class="annotation-group text" transform="translate(0, -48)"/><g class="label-group text" transform="translate(-33.6171875, -48)"><g class="label" style="font-weight: bolder" transform="translate(0,-12)"><foreignObject width="67.234375" height="24"><div xmlns="http://www.w3.org/1999/xhtml" style="display: table-cell; white-space: nowrap; line-height: 1.5; max-width: 109px; text-align: center;"><span class="nodeLabel markdown-node-label" style=""><p>Outcome</p></span></div></foreignObject></g></g><g class="members-group text" transform="translate(-59.44921875, 0)"><g class="label" style="" transform="translate(0,-12)"><foreignObject width="80.921875" height="24"><div xmlns="http://www.w3.org/1999/xhtml" style="display: table-cell; white-space: nowrap; line-height: 1.5; max-width: 124px; text-align: center;"><span class="nodeLabel markdown-node-label" style=""><p>+status: str</p></span></div></foreignObject></g><g class="label" style="" transform="translate(0,12)"><foreignObject width="85.28125" height="24"><div xmlns="http://www.w3.org/1999/xhtml" style="display: table-cell; white-space: nowrap; line-height: 1.5; max-width: 130px; text-align: center;"><span class="nodeLabel markdown-node-label" style=""><p>+reason: str</p></span></div></foreignObject></g></g><g class="methods-group text" transform="translate(-59.44921875, 72)"/><g class="divider" style=""><path d="M-71.44921875 -24 C-41.567153883999254 -24, -11.685089017998514 -24, 71.44921875 -24 M-71.44921875 -24 C-23.33680808600647 -24, 24.77560257798706 -24, 71.44921875 -24" stroke="#9370DB" stroke-width="1.3" fill="none" stroke-dasharray="0 0" style=""/></g><g class="divider" style=""><path d="M-71.44921875 48 C-14.78183183920202 48, 41.88555507159596 48, 71.44921875 48 M-71.44921875 48 C-38.776840487885465 48, -6.104462225770931 48, 71.44921875 48" stroke="#9370DB" stroke-width="1.3" fill="none" stroke-dasharray="0 0" style=""/></g></g></g></g></g></svg>